<mxfile host="app.diagrams.net" agent="Mozilla/5.0 (Windows NT 10.0; Win64; x64) AppleWebKit/537.36 (KHTML, like Gecko) Chrome/134.0.0.0 Safari/537.36" version="26.1.3">
  <diagram name="PÃ¡gina-1" id="iA86zPxLDMbVzKPARjE1">
    <mxGraphModel dx="1643" dy="1869" grid="1" gridSize="10" guides="1" tooltips="1" connect="1" arrows="1" fold="1" page="1" pageScale="1" pageWidth="827" pageHeight="1169" math="0" shadow="0">
      <root>
        <mxCell id="0" />
        <mxCell id="1" parent="0" />
        <mxCell id="jgZu3CPdUST2G5UZ0h_J-1" value="Usuario" style="rounded=0;whiteSpace=wrap;html=1;" parent="1" vertex="1">
          <mxGeometry x="320" y="40" width="120" height="60" as="geometry" />
        </mxCell>
        <mxCell id="jgZu3CPdUST2G5UZ0h_J-3" value="" style="triangle;whiteSpace=wrap;html=1;direction=north;" parent="1" vertex="1">
          <mxGeometry x="340" y="140" width="80" height="60" as="geometry" />
        </mxCell>
        <mxCell id="jgZu3CPdUST2G5UZ0h_J-19" value="" style="edgeStyle=orthogonalEdgeStyle;rounded=0;orthogonalLoop=1;jettySize=auto;html=1;endArrow=none;startFill=0;" parent="1" source="jgZu3CPdUST2G5UZ0h_J-5" target="jgZu3CPdUST2G5UZ0h_J-15" edge="1">
          <mxGeometry relative="1" as="geometry" />
        </mxCell>
        <mxCell id="jgZu3CPdUST2G5UZ0h_J-20" value="&lt;span style=&quot;background-color: transparent; color: light-dark(rgb(0, 0, 0), rgb(255, 255, 255));&quot;&gt;usuario_geral_curso&lt;/span&gt;" style="ellipse;whiteSpace=wrap;html=1;align=center;" parent="1" vertex="1">
          <mxGeometry x="440" y="410" width="100" height="40" as="geometry" />
        </mxCell>
        <mxCell id="wf0kUhRfv15sfpdbrHMT-11" value="Usuario_geral_usuario&lt;div&gt;_&lt;span style=&quot;background-color: transparent; color: light-dark(rgb(0, 0, 0), rgb(255, 255, 255));&quot;&gt;id&lt;/span&gt;&lt;/div&gt;" style="ellipse;whiteSpace=wrap;html=1;align=center;" parent="1" vertex="1">
          <mxGeometry x="500" y="290" width="130" height="50" as="geometry" />
        </mxCell>
        <mxCell id="S0H58vd1G6dp65IOGoXh-6" value="" style="endArrow=none;html=1;rounded=0;entryX=0;entryY=0.75;entryDx=0;entryDy=0;exitX=0.765;exitY=0.9;exitDx=0;exitDy=0;exitPerimeter=0;" edge="1" parent="1" source="wf0kUhRfv15sfpdbrHMT-3" target="jgZu3CPdUST2G5UZ0h_J-1">
          <mxGeometry relative="1" as="geometry">
            <mxPoint x="294" y="73" as="sourcePoint" />
            <mxPoint x="320" y="130" as="targetPoint" />
          </mxGeometry>
        </mxCell>
        <mxCell id="U7xiMIObRmgimtecd0VR-6" value="" style="endArrow=none;html=1;rounded=0;exitX=0;exitY=0.5;exitDx=0;exitDy=0;entryX=1;entryY=0.5;entryDx=0;entryDy=0;" edge="1" parent="1" source="jgZu3CPdUST2G5UZ0h_J-22" target="jgZu3CPdUST2G5UZ0h_J-5">
          <mxGeometry relative="1" as="geometry">
            <mxPoint x="580" y="430" as="sourcePoint" />
            <mxPoint x="740" y="430" as="targetPoint" />
          </mxGeometry>
        </mxCell>
        <mxCell id="U7xiMIObRmgimtecd0VR-8" value="" style="endArrow=none;html=1;rounded=0;entryX=0;entryY=0.5;entryDx=0;entryDy=0;exitX=1;exitY=0;exitDx=0;exitDy=0;" edge="1" parent="1" source="jgZu3CPdUST2G5UZ0h_J-5" target="wf0kUhRfv15sfpdbrHMT-11">
          <mxGeometry relative="1" as="geometry">
            <mxPoint x="380" y="260" as="sourcePoint" />
            <mxPoint x="540" y="260" as="targetPoint" />
          </mxGeometry>
        </mxCell>
        <mxCell id="jgZu3CPdUST2G5UZ0h_J-5" value="Usuario_geral" style="rounded=0;whiteSpace=wrap;html=1;" parent="1" vertex="1">
          <mxGeometry x="320" y="320" width="120" height="60" as="geometry" />
        </mxCell>
        <mxCell id="jgZu3CPdUST2G5UZ0h_J-6" value="Moderador" style="rounded=0;whiteSpace=wrap;html=1;" parent="1" vertex="1">
          <mxGeometry x="540" y="190" width="120" height="60" as="geometry" />
        </mxCell>
        <mxCell id="jgZu3CPdUST2G5UZ0h_J-12" value="" style="endArrow=none;html=1;rounded=0;entryX=0.5;entryY=1;entryDx=0;entryDy=0;exitX=1;exitY=0.5;exitDx=0;exitDy=0;" parent="1" source="jgZu3CPdUST2G5UZ0h_J-3" target="jgZu3CPdUST2G5UZ0h_J-1" edge="1">
          <mxGeometry width="50" height="50" relative="1" as="geometry">
            <mxPoint x="370" y="100" as="sourcePoint" />
            <mxPoint x="320" y="110" as="targetPoint" />
          </mxGeometry>
        </mxCell>
        <mxCell id="jgZu3CPdUST2G5UZ0h_J-13" value="Postagem" style="rounded=0;whiteSpace=wrap;html=1;" parent="1" vertex="1">
          <mxGeometry x="240" y="570" width="120" height="60" as="geometry" />
        </mxCell>
        <mxCell id="jgZu3CPdUST2G5UZ0h_J-18" value="" style="edgeStyle=orthogonalEdgeStyle;rounded=0;orthogonalLoop=1;jettySize=auto;html=1;endArrow=none;startFill=0;" parent="1" source="jgZu3CPdUST2G5UZ0h_J-15" target="jgZu3CPdUST2G5UZ0h_J-13" edge="1">
          <mxGeometry relative="1" as="geometry">
            <Array as="points">
              <mxPoint x="360" y="510" />
              <mxPoint x="360" y="510" />
            </Array>
          </mxGeometry>
        </mxCell>
        <mxCell id="jgZu3CPdUST2G5UZ0h_J-15" value="Realiza" style="shape=rhombus;perimeter=rhombusPerimeter;whiteSpace=wrap;html=1;align=center;" parent="1" vertex="1">
          <mxGeometry x="320" y="420" width="120" height="60" as="geometry" />
        </mxCell>
        <mxCell id="wf0kUhRfv15sfpdbrHMT-1" value="usuario_id" style="ellipse;whiteSpace=wrap;html=1;align=center;" parent="1" vertex="1">
          <mxGeometry x="290" y="-45" width="100" height="40" as="geometry" />
        </mxCell>
        <mxCell id="wf0kUhRfv15sfpdbrHMT-2" value="usuario_nome&lt;div&gt;_usuario&lt;/div&gt;" style="ellipse;whiteSpace=wrap;html=1;align=center;" parent="1" vertex="1">
          <mxGeometry x="450" y="30" width="100" height="40" as="geometry" />
        </mxCell>
        <mxCell id="wf0kUhRfv15sfpdbrHMT-3" value="usuario_email" style="ellipse;whiteSpace=wrap;html=1;align=center;" parent="1" vertex="1">
          <mxGeometry x="200" y="40" width="100" height="40" as="geometry" />
        </mxCell>
        <mxCell id="wf0kUhRfv15sfpdbrHMT-4" value="usuario_nome" style="ellipse;whiteSpace=wrap;html=1;align=center;" parent="1" vertex="1">
          <mxGeometry x="414" y="-50" width="100" height="50" as="geometry" />
        </mxCell>
        <mxCell id="wf0kUhRfv15sfpdbrHMT-7" value="Moderador_ID" style="ellipse;whiteSpace=wrap;html=1;align=center;" parent="1" vertex="1">
          <mxGeometry x="727" y="180" width="100" height="40" as="geometry" />
        </mxCell>
        <mxCell id="wf0kUhRfv15sfpdbrHMT-8" value="usuario_senha" style="ellipse;whiteSpace=wrap;html=1;align=center;" parent="1" vertex="1">
          <mxGeometry x="470" y="100" width="100" height="40" as="geometry" />
        </mxCell>
        <mxCell id="jgZu3CPdUST2G5UZ0h_J-21" value="Postagem_data" style="ellipse;whiteSpace=wrap;html=1;align=center;" parent="1" vertex="1">
          <mxGeometry x="70" y="570" width="100" height="40" as="geometry" />
        </mxCell>
        <mxCell id="jgZu3CPdUST2G5UZ0h_J-22" value="usuario_geral_id" style="ellipse;whiteSpace=wrap;html=1;align=center;fontStyle=4;" parent="1" vertex="1">
          <mxGeometry x="475" y="360" width="100" height="40" as="geometry" />
        </mxCell>
        <mxCell id="jgZu3CPdUST2G5UZ0h_J-24" value="Postagem_categoria" style="ellipse;whiteSpace=wrap;html=1;align=center;" parent="1" vertex="1">
          <mxGeometry x="50" y="630" width="120" height="50" as="geometry" />
        </mxCell>
        <mxCell id="jgZu3CPdUST2G5UZ0h_J-25" value="Postagem_cor" style="ellipse;whiteSpace=wrap;html=1;align=center;" parent="1" vertex="1">
          <mxGeometry x="70" y="700" width="100" height="40" as="geometry" />
        </mxCell>
        <mxCell id="jgZu3CPdUST2G5UZ0h_J-26" value="Postagem_local" style="ellipse;whiteSpace=wrap;html=1;align=center;" parent="1" vertex="1">
          <mxGeometry x="240" y="770" width="100" height="40" as="geometry" />
        </mxCell>
        <mxCell id="jgZu3CPdUST2G5UZ0h_J-27" value="Postagem_descricao" style="ellipse;whiteSpace=wrap;html=1;align=center;" parent="1" vertex="1">
          <mxGeometry x="429" y="750" width="100" height="40" as="geometry" />
        </mxCell>
        <mxCell id="jgZu3CPdUST2G5UZ0h_J-28" style="edgeStyle=orthogonalEdgeStyle;rounded=0;orthogonalLoop=1;jettySize=auto;html=1;exitX=0.5;exitY=1;exitDx=0;exitDy=0;" parent="1" source="jgZu3CPdUST2G5UZ0h_J-26" target="jgZu3CPdUST2G5UZ0h_J-26" edge="1">
          <mxGeometry relative="1" as="geometry" />
        </mxCell>
        <mxCell id="jgZu3CPdUST2G5UZ0h_J-29" value="Postagem_nome" style="ellipse;whiteSpace=wrap;html=1;align=center;" parent="1" vertex="1">
          <mxGeometry x="550" y="730" width="100" height="40" as="geometry" />
        </mxCell>
        <mxCell id="jgZu3CPdUST2G5UZ0h_J-30" value="&lt;div&gt;&lt;span style=&quot;background-color: transparent; color: light-dark(rgb(0, 0, 0), rgb(255, 255, 255));&quot;&gt;Postagem_imagem&lt;/span&gt;&lt;/div&gt;" style="ellipse;whiteSpace=wrap;html=1;align=center;" parent="1" vertex="1">
          <mxGeometry x="70" y="510" width="100" height="40" as="geometry" />
        </mxCell>
        <mxCell id="jgZu3CPdUST2G5UZ0h_J-33" value="" style="endArrow=none;html=1;rounded=0;exitX=1;exitY=0.5;exitDx=0;exitDy=0;entryX=0;entryY=0.25;entryDx=0;entryDy=0;" edge="1" parent="1" source="jgZu3CPdUST2G5UZ0h_J-21" target="jgZu3CPdUST2G5UZ0h_J-13">
          <mxGeometry relative="1" as="geometry">
            <mxPoint x="90" y="630" as="sourcePoint" />
            <mxPoint x="240" y="590" as="targetPoint" />
          </mxGeometry>
        </mxCell>
        <mxCell id="jgZu3CPdUST2G5UZ0h_J-34" value="" style="endArrow=none;html=1;rounded=0;exitX=1;exitY=0.5;exitDx=0;exitDy=0;entryX=0;entryY=1;entryDx=0;entryDy=0;" edge="1" parent="1" source="jgZu3CPdUST2G5UZ0h_J-24" target="jgZu3CPdUST2G5UZ0h_J-13">
          <mxGeometry relative="1" as="geometry">
            <mxPoint x="220" y="660" as="sourcePoint" />
            <mxPoint x="380" y="660" as="targetPoint" />
          </mxGeometry>
        </mxCell>
        <mxCell id="jgZu3CPdUST2G5UZ0h_J-35" value="" style="endArrow=none;html=1;rounded=0;exitX=1;exitY=0.5;exitDx=0;exitDy=0;entryX=0.25;entryY=1;entryDx=0;entryDy=0;" edge="1" parent="1" source="jgZu3CPdUST2G5UZ0h_J-25" target="jgZu3CPdUST2G5UZ0h_J-13">
          <mxGeometry relative="1" as="geometry">
            <mxPoint x="220" y="690" as="sourcePoint" />
            <mxPoint x="280" y="640" as="targetPoint" />
          </mxGeometry>
        </mxCell>
        <mxCell id="jgZu3CPdUST2G5UZ0h_J-36" value="" style="endArrow=none;html=1;rounded=0;exitX=0.25;exitY=0;exitDx=0;exitDy=0;entryX=1;entryY=1;entryDx=0;entryDy=0;" edge="1" parent="1" source="jgZu3CPdUST2G5UZ0h_J-13" target="jgZu3CPdUST2G5UZ0h_J-30">
          <mxGeometry relative="1" as="geometry">
            <mxPoint x="280" y="690" as="sourcePoint" />
            <mxPoint x="250" y="520" as="targetPoint" />
          </mxGeometry>
        </mxCell>
        <mxCell id="jgZu3CPdUST2G5UZ0h_J-38" value="" style="endArrow=none;html=1;rounded=0;exitX=0.75;exitY=1;exitDx=0;exitDy=0;entryX=0.387;entryY=0.041;entryDx=0;entryDy=0;entryPerimeter=0;" edge="1" parent="1" source="jgZu3CPdUST2G5UZ0h_J-13" target="jgZu3CPdUST2G5UZ0h_J-26">
          <mxGeometry relative="1" as="geometry">
            <mxPoint x="410" y="700" as="sourcePoint" />
            <mxPoint x="570" y="700" as="targetPoint" />
          </mxGeometry>
        </mxCell>
        <mxCell id="S0H58vd1G6dp65IOGoXh-2" value="" style="endArrow=none;html=1;rounded=0;exitX=0.25;exitY=0;exitDx=0;exitDy=0;entryX=0.5;entryY=1;entryDx=0;entryDy=0;" edge="1" parent="1" source="jgZu3CPdUST2G5UZ0h_J-1" target="wf0kUhRfv15sfpdbrHMT-1">
          <mxGeometry relative="1" as="geometry">
            <mxPoint x="340" y="20" as="sourcePoint" />
            <mxPoint x="500" y="20" as="targetPoint" />
          </mxGeometry>
        </mxCell>
        <mxCell id="jgZu3CPdUST2G5UZ0h_J-39" value="" style="endArrow=none;html=1;rounded=0;entryX=0;entryY=0.5;entryDx=0;entryDy=0;" edge="1" parent="1" target="jgZu3CPdUST2G5UZ0h_J-29">
          <mxGeometry relative="1" as="geometry">
            <mxPoint x="360" y="600" as="sourcePoint" />
            <mxPoint x="520" y="599.5" as="targetPoint" />
          </mxGeometry>
        </mxCell>
        <mxCell id="S0H58vd1G6dp65IOGoXh-3" value="" style="endArrow=none;html=1;rounded=0;exitX=0.75;exitY=0;exitDx=0;exitDy=0;entryX=0.415;entryY=0.993;entryDx=0;entryDy=0;entryPerimeter=0;" edge="1" parent="1" source="jgZu3CPdUST2G5UZ0h_J-1" target="wf0kUhRfv15sfpdbrHMT-4">
          <mxGeometry relative="1" as="geometry">
            <mxPoint x="360" y="50" as="sourcePoint" />
            <mxPoint x="350" y="5" as="targetPoint" />
          </mxGeometry>
        </mxCell>
        <mxCell id="U7xiMIObRmgimtecd0VR-3" value="" style="endArrow=none;html=1;rounded=0;exitX=0;exitY=0.5;exitDx=0;exitDy=0;entryX=0.44;entryY=-0.003;entryDx=0;entryDy=0;entryPerimeter=0;" edge="1" parent="1" source="jgZu3CPdUST2G5UZ0h_J-3" target="jgZu3CPdUST2G5UZ0h_J-5">
          <mxGeometry relative="1" as="geometry">
            <mxPoint x="310" y="280" as="sourcePoint" />
            <mxPoint x="470" y="280" as="targetPoint" />
          </mxGeometry>
        </mxCell>
        <mxCell id="U7xiMIObRmgimtecd0VR-4" value="" style="endArrow=none;html=1;rounded=0;exitX=0.03;exitY=0.994;exitDx=0;exitDy=0;exitPerimeter=0;entryX=0;entryY=0.5;entryDx=0;entryDy=0;" edge="1" parent="1" source="jgZu3CPdUST2G5UZ0h_J-3" target="jgZu3CPdUST2G5UZ0h_J-6">
          <mxGeometry relative="1" as="geometry">
            <mxPoint x="460" y="150" as="sourcePoint" />
            <mxPoint x="620" y="150" as="targetPoint" />
          </mxGeometry>
        </mxCell>
        <mxCell id="S0H58vd1G6dp65IOGoXh-4" value="" style="endArrow=none;html=1;rounded=0;exitX=1;exitY=0.5;exitDx=0;exitDy=0;entryX=0.353;entryY=0.95;entryDx=0;entryDy=0;entryPerimeter=0;" edge="1" parent="1" source="jgZu3CPdUST2G5UZ0h_J-1" target="wf0kUhRfv15sfpdbrHMT-2">
          <mxGeometry relative="1" as="geometry">
            <mxPoint x="444" y="120" as="sourcePoint" />
            <mxPoint x="490" y="80" as="targetPoint" />
          </mxGeometry>
        </mxCell>
        <mxCell id="S0H58vd1G6dp65IOGoXh-5" value="" style="endArrow=none;html=1;rounded=0;exitX=1;exitY=0.75;exitDx=0;exitDy=0;" edge="1" parent="1" source="jgZu3CPdUST2G5UZ0h_J-1" target="wf0kUhRfv15sfpdbrHMT-8">
          <mxGeometry relative="1" as="geometry">
            <mxPoint x="450" y="80" as="sourcePoint" />
            <mxPoint x="495" y="78" as="targetPoint" />
          </mxGeometry>
        </mxCell>
        <mxCell id="jgZu3CPdUST2G5UZ0h_J-40" value="" style="endArrow=none;html=1;rounded=0;exitX=1;exitY=1;exitDx=0;exitDy=0;entryX=0;entryY=0;entryDx=0;entryDy=0;" edge="1" parent="1" source="jgZu3CPdUST2G5UZ0h_J-13" target="jgZu3CPdUST2G5UZ0h_J-27">
          <mxGeometry relative="1" as="geometry">
            <mxPoint x="560" y="700" as="sourcePoint" />
            <mxPoint x="720" y="700" as="targetPoint" />
          </mxGeometry>
        </mxCell>
        <mxCell id="jgZu3CPdUST2G5UZ0h_J-41" value="0 , N" style="text;html=1;align=center;verticalAlign=middle;resizable=0;points=[];autosize=1;strokeColor=none;fillColor=none;" vertex="1" parent="1">
          <mxGeometry x="310" y="540" width="50" height="30" as="geometry" />
        </mxCell>
        <mxCell id="U7xiMIObRmgimtecd0VR-5" value="" style="endArrow=none;html=1;rounded=0;exitX=0;exitY=0;exitDx=0;exitDy=0;entryX=1;entryY=1;entryDx=0;entryDy=0;" edge="1" parent="1" source="jgZu3CPdUST2G5UZ0h_J-20" target="jgZu3CPdUST2G5UZ0h_J-5">
          <mxGeometry relative="1" as="geometry">
            <mxPoint x="440" y="520" as="sourcePoint" />
            <mxPoint x="600" y="520" as="targetPoint" />
          </mxGeometry>
        </mxCell>
        <mxCell id="jgZu3CPdUST2G5UZ0h_J-42" value="1, N" style="text;html=1;align=center;verticalAlign=middle;resizable=0;points=[];autosize=1;strokeColor=none;fillColor=none;" vertex="1" parent="1">
          <mxGeometry x="330" y="380" width="50" height="30" as="geometry" />
        </mxCell>
        <mxCell id="S0H58vd1G6dp65IOGoXh-7" value="" style="endArrow=none;html=1;rounded=0;exitX=1;exitY=0.5;exitDx=0;exitDy=0;entryX=0;entryY=1;entryDx=0;entryDy=0;" edge="1" parent="1" source="jgZu3CPdUST2G5UZ0h_J-6" target="wf0kUhRfv15sfpdbrHMT-7">
          <mxGeometry relative="1" as="geometry">
            <mxPoint x="630" y="330" as="sourcePoint" />
            <mxPoint x="790" y="330" as="targetPoint" />
          </mxGeometry>
        </mxCell>
        <mxCell id="S0H58vd1G6dp65IOGoXh-14" value="&lt;u&gt;Postagem_ID&lt;/u&gt;" style="ellipse;whiteSpace=wrap;html=1;align=center;" vertex="1" parent="1">
          <mxGeometry x="140" y="760" width="100" height="40" as="geometry" />
        </mxCell>
        <mxCell id="S0H58vd1G6dp65IOGoXh-15" value="" style="endArrow=none;html=1;rounded=0;exitX=0.5;exitY=0;exitDx=0;exitDy=0;entryX=0.597;entryY=0.969;entryDx=0;entryDy=0;entryPerimeter=0;" edge="1" parent="1" source="S0H58vd1G6dp65IOGoXh-14" target="jgZu3CPdUST2G5UZ0h_J-13">
          <mxGeometry relative="1" as="geometry">
            <mxPoint x="290" y="660" as="sourcePoint" />
            <mxPoint x="450" y="660" as="targetPoint" />
          </mxGeometry>
        </mxCell>
        <mxCell id="U7xiMIObRmgimtecd0VR-9" value="Postagem_usuario_ID" style="ellipse;whiteSpace=wrap;html=1;align=center;" vertex="1" parent="1">
          <mxGeometry x="200" y="460" width="130" height="60" as="geometry" />
        </mxCell>
        <mxCell id="U7xiMIObRmgimtecd0VR-10" value="Moderador_usuario_id" style="ellipse;whiteSpace=wrap;html=1;align=center;" vertex="1" parent="1">
          <mxGeometry x="760" y="230" width="140" height="50" as="geometry" />
        </mxCell>
        <mxCell id="U7xiMIObRmgimtecd0VR-11" value="" style="endArrow=none;html=1;rounded=0;exitX=0;exitY=0.5;exitDx=0;exitDy=0;entryX=1;entryY=1;entryDx=0;entryDy=0;" edge="1" parent="1" source="U7xiMIObRmgimtecd0VR-10" target="jgZu3CPdUST2G5UZ0h_J-6">
          <mxGeometry relative="1" as="geometry">
            <mxPoint x="700" y="360" as="sourcePoint" />
            <mxPoint x="860" y="360" as="targetPoint" />
          </mxGeometry>
        </mxCell>
        <mxCell id="S0H58vd1G6dp65IOGoXh-16" value="" style="endArrow=none;html=1;rounded=0;exitX=0.5;exitY=0;exitDx=0;exitDy=0;entryX=0.602;entryY=0.992;entryDx=0;entryDy=0;entryPerimeter=0;" edge="1" parent="1" source="jgZu3CPdUST2G5UZ0h_J-13" target="U7xiMIObRmgimtecd0VR-9">
          <mxGeometry relative="1" as="geometry">
            <mxPoint x="60" y="430" as="sourcePoint" />
            <mxPoint x="220" y="430" as="targetPoint" />
          </mxGeometry>
        </mxCell>
        <mxCell id="U7xiMIObRmgimtecd0VR-12" value="Postagem_usuario_tipo" style="ellipse;whiteSpace=wrap;html=1;align=center;" vertex="1" parent="1">
          <mxGeometry x="330" y="800" width="140" height="50" as="geometry" />
        </mxCell>
        <mxCell id="2N9cjDjFMaZKL-ui_3lG-3" value="Verifica" style="shape=rhombus;perimeter=rhombusPerimeter;whiteSpace=wrap;html=1;align=center;" vertex="1" parent="1">
          <mxGeometry x="697" y="550" width="120" height="60" as="geometry" />
        </mxCell>
        <mxCell id="2N9cjDjFMaZKL-ui_3lG-4" value="" style="endArrow=none;html=1;rounded=0;entryX=0;entryY=1;entryDx=0;entryDy=0;" edge="1" parent="1" target="2N9cjDjFMaZKL-ui_3lG-3">
          <mxGeometry relative="1" as="geometry">
            <mxPoint x="360" y="600" as="sourcePoint" />
            <mxPoint x="520" y="600" as="targetPoint" />
          </mxGeometry>
        </mxCell>
        <mxCell id="2N9cjDjFMaZKL-ui_3lG-5" value="" style="endArrow=none;html=1;rounded=0;exitX=0.75;exitY=1;exitDx=0;exitDy=0;entryX=0.5;entryY=0;entryDx=0;entryDy=0;" edge="1" parent="1" source="jgZu3CPdUST2G5UZ0h_J-6" target="2N9cjDjFMaZKL-ui_3lG-3">
          <mxGeometry relative="1" as="geometry">
            <mxPoint x="680" y="500" as="sourcePoint" />
            <mxPoint x="840" y="500" as="targetPoint" />
          </mxGeometry>
        </mxCell>
        <mxCell id="2N9cjDjFMaZKL-ui_3lG-6" value="0, N" style="text;html=1;align=center;verticalAlign=middle;resizable=0;points=[];autosize=1;strokeColor=none;fillColor=none;" vertex="1" parent="1">
          <mxGeometry x="364" y="575" width="50" height="30" as="geometry" />
        </mxCell>
        <mxCell id="U7xiMIObRmgimtecd0VR-13" value="" style="endArrow=none;html=1;rounded=0;exitX=0.867;exitY=1.046;exitDx=0;exitDy=0;exitPerimeter=0;" edge="1" parent="1" source="jgZu3CPdUST2G5UZ0h_J-13" target="U7xiMIObRmgimtecd0VR-12">
          <mxGeometry relative="1" as="geometry">
            <mxPoint x="340" y="640" as="sourcePoint" />
            <mxPoint x="289" y="782" as="targetPoint" />
          </mxGeometry>
        </mxCell>
        <mxCell id="2N9cjDjFMaZKL-ui_3lG-7" value="1,1" style="text;html=1;align=center;verticalAlign=middle;resizable=0;points=[];autosize=1;strokeColor=none;fillColor=none;" vertex="1" parent="1">
          <mxGeometry x="640" y="260" width="40" height="30" as="geometry" />
        </mxCell>
      </root>
    </mxGraphModel>
  </diagram>
</mxfile>
